<?xml version="1.0" encoding="UTF-8" standalone="no" ?>
<!DOCTYPE svg PUBLIC "-//W3C//DTD SVG 1.1//EN" "http://www.w3.org/Graphics/SVG/1.1/DTD/svg11.dtd">
<svg xmlns="http://www.w3.org/2000/svg" xmlns:xlink="http://www.w3.org/1999/xlink" version="1.1" width="1280" height="1024" viewBox="0 0 1280 1024" xml:space="preserve">
<desc>Created with Fabric.js 4.4.0</desc>
<defs>
</defs>
<g transform="matrix(1 0 0 1 640 512)" id="background-logo"  >
<rect style="stroke: none; stroke-width: 0; stroke-dasharray: none; stroke-linecap: butt; stroke-dashoffset: 0; stroke-linejoin: miter; stroke-miterlimit: 4; fill: rgb(255,255,255); fill-rule: nonzero; opacity: 1;"  paint-order="stroke"  x="-640" y="-512" rx="0" ry="0" width="1280" height="1024" />
</g>
<g transform="matrix(1.9211538461538462 0 0 1.9211538461538462 638.7271007591096 500.7599510303644)" id="text-logo"  >
<g style=""  paint-order="stroke"   >
		<g transform="matrix(1 0 0 1 0 0)" id="text-logo-path-0"  >
<filter id="SVGID_386123" y="-22.971638480871547%" height="145.9432769617431%" x="-25.133305527928393%" width="150.2666110558568%" >
	<feGaussianBlur in="SourceAlpha" stdDeviation="0"></feGaussianBlur>
	<feOffset dx="16" dy="3.765957446808511" result="oBlur" ></feOffset>
	<feFlood flood-color="rgb(0,0,0)" flood-opacity="1"/>
	<feComposite in2="oBlur" operator="in" />
	<feMerge>
		<feMergeNode></feMergeNode>
		<feMergeNode in="SourceGraphic"></feMergeNode>
	</feMerge>
</filter>
<path style="stroke: rgb(0,0,0); stroke-width: 13.02270378948143; stroke-dasharray: none; stroke-linecap: butt; stroke-dashoffset: 0; stroke-linejoin: miter; stroke-miterlimit: 4; fill: rgb(255,87,88); fill-rule: nonzero; opacity: 1;filter: url(#SVGID_386123);"  paint-order="stroke"  transform=" translate(-158.325, 61.595)" d="M 37.17 1.77 L 37.17 1.77 Q 27.61 1.77 19.74 -3.1 Q 11.86 -7.96 7.17 -16.02 Q 2.48 -24.07 2.48 -33.81 L 2.48 -33.81 L 2.48 -41.95 Q 2.48 -42.83 3.36 -42.83 L 3.36 -42.83 L 23.19 -42.83 Q 23.89 -42.83 23.89 -41.95 L 23.89 -41.95 L 23.89 -33.81 Q 23.89 -27.97 27.79 -23.81 Q 31.68 -19.65 37.17 -19.65 L 37.17 -19.65 Q 42.66 -19.65 46.55 -23.89 Q 50.45 -28.14 50.45 -33.81 L 50.45 -33.81 Q 50.45 -40.36 41.95 -45.13 L 41.95 -45.13 Q 39.12 -46.73 33.1 -50.09 Q 27.08 -53.45 21.77 -56.46 L 21.77 -56.46 Q 12.04 -62.13 7.35 -70.71 Q 2.65 -79.3 2.65 -90.09 L 2.65 -90.09 Q 2.65 -100 7.43 -107.88 Q 12.21 -115.76 20.09 -120.36 Q 27.97 -124.96 37.17 -124.96 L 37.17 -124.96 Q 46.55 -124.96 54.43 -120.27 Q 62.3 -115.58 66.99 -107.7 Q 71.69 -99.83 71.69 -90.09 L 71.69 -90.09 L 71.69 -75.58 Q 71.69 -74.87 70.98 -74.87 L 70.98 -74.87 L 51.15 -74.87 Q 50.45 -74.87 50.45 -75.58 L 50.45 -75.58 L 50.27 -90.09 Q 50.27 -96.29 46.37 -100.18 Q 42.48 -104.08 37.17 -104.08 L 37.17 -104.08 Q 31.68 -104.08 27.79 -99.92 Q 23.89 -95.76 23.89 -90.09 L 23.89 -90.09 Q 23.89 -84.25 26.37 -80.36 Q 28.85 -76.46 35.4 -72.92 L 35.4 -72.92 Q 36.28 -72.39 38.85 -71.07 Q 41.42 -69.74 44.43 -68.06 Q 47.44 -66.38 49.83 -65.14 Q 52.21 -63.9 52.75 -63.54 L 52.75 -63.54 Q 61.6 -58.59 66.73 -51.42 Q 71.86 -44.25 71.86 -33.81 L 71.86 -33.81 Q 71.86 -23.72 67.17 -15.66 Q 62.48 -7.61 54.6 -2.92 Q 46.73 1.77 37.17 1.77 Z M 117 0 L 97 0 Q 96.11 0 96.11 -0.89 L 96.11 -0.89 L 96.29 -122.48 Q 96.29 -123.19 97 -123.19 L 97 -123.19 L 116.82 -123.19 Q 117.53 -123.19 117.53 -122.48 L 117.53 -122.48 L 117.7 -0.89 Q 117.7 0 117 0 L 117 0 Z M 165.85 0 L 145.85 0 Q 145.14 0 145.14 -0.89 L 145.14 -0.89 L 145.49 -122.48 Q 145.49 -123.19 146.2 -123.19 L 146.2 -123.19 L 167.8 -123.19 Q 168.5 -123.19 169.03 -122.48 L 169.03 -122.48 L 185.14 -99.12 L 201.25 -122.48 Q 201.78 -123.19 202.49 -123.19 L 202.49 -123.19 L 224.26 -123.19 Q 224.97 -123.19 224.97 -122.48 L 224.97 -122.48 L 225.32 -0.89 Q 225.32 0 224.61 0 L 224.61 0 L 204.61 0 Q 203.9 0 203.9 -0.89 L 203.9 -0.89 L 203.73 -91.16 L 185.14 -64.25 L 166.73 -91.16 L 166.56 -0.89 Q 166.56 0 165.85 0 L 165.85 0 Z M 313.29 0 L 247.27 0 Q 246.38 0 246.38 -0.89 L 246.38 -0.89 L 246.56 -20.18 L 289.93 -103.01 L 248.86 -103.01 Q 248.15 -103.01 248.15 -103.72 L 248.15 -103.72 L 248.15 -122.31 Q 248.15 -123.19 248.86 -123.19 L 248.86 -123.19 L 312.94 -123.19 Q 313.82 -123.19 313.82 -122.31 L 313.82 -122.31 L 313.82 -103.19 L 270.63 -20.71 L 313.29 -20.71 Q 314 -20.71 314 -19.82 L 314 -19.82 L 314.17 -0.89 Q 314.17 0 313.29 0 L 313.29 0 Z" stroke-linecap="round" />
</g>
</g>
</g>
</svg>